<svg width="151" height="68" viewBox="0 0 151 68" fill="none" xmlns="http://www.w3.org/2000/svg">
<g filter="url(#filter0_d_1_30)">
<rect x="4" width="143" height="59.4846" rx="29.7423" fill="#0A1F72"/>
<rect x="4" width="143" height="59.4846" rx="29.7423" fill="black" fill-opacity="0.2"/>
<rect x="4.5" y="0.5" width="142" height="58.4846" rx="29.2423" stroke="black"/>
</g>
<path d="M50.2228 19.24V37H46.1188V19.24H50.2228ZM59.2929 37.192C57.9809 37.192 56.7969 36.912 55.7409 36.352C54.7009 35.792 53.8769 34.992 53.2689 33.952C52.6769 32.912 52.3809 31.696 52.3809 30.304C52.3809 28.928 52.6849 27.72 53.2929 26.68C53.9009 25.624 54.7329 24.816 55.7889 24.256C56.8449 23.696 58.0289 23.416 59.3409 23.416C60.6529 23.416 61.8369 23.696 62.8929 24.256C63.9489 24.816 64.7809 25.624 65.3889 26.68C65.9969 27.72 66.3009 28.928 66.3009 30.304C66.3009 31.68 65.9889 32.896 65.3649 33.952C64.7569 34.992 63.9169 35.792 62.8449 36.352C61.7889 36.912 60.6049 37.192 59.2929 37.192ZM59.2929 33.64C60.0769 33.64 60.7409 33.352 61.2849 32.776C61.8449 32.2 62.1249 31.376 62.1249 30.304C62.1249 29.232 61.8529 28.408 61.3089 27.832C60.7809 27.256 60.1249 26.968 59.3409 26.968C58.5409 26.968 57.8769 27.256 57.3489 27.832C56.8209 28.392 56.5569 29.216 56.5569 30.304C56.5569 31.376 56.8129 32.2 57.3249 32.776C57.8529 33.352 58.5089 33.64 59.2929 33.64ZM73.5662 23.416C74.5102 23.416 75.3342 23.608 76.0382 23.992C76.7582 24.376 77.3102 24.88 77.6942 25.504V23.608H81.7982V36.976C81.7982 38.208 81.5502 39.32 81.0542 40.312C80.5742 41.32 79.8302 42.12 78.8222 42.712C77.8302 43.304 76.5902 43.6 75.1022 43.6C73.1182 43.6 71.5102 43.128 70.2782 42.184C69.0462 41.256 68.3422 39.992 68.1662 38.392H72.2222C72.3502 38.904 72.6542 39.304 73.1342 39.592C73.6142 39.896 74.2062 40.048 74.9102 40.048C75.7582 40.048 76.4302 39.8 76.9262 39.304C77.4382 38.824 77.6942 38.048 77.6942 36.976V35.08C77.2942 35.704 76.7422 36.216 76.0382 36.616C75.3342 37 74.5102 37.192 73.5662 37.192C72.4622 37.192 71.4622 36.912 70.5662 36.352C69.6702 35.776 68.9582 34.968 68.4302 33.928C67.9182 32.872 67.6622 31.656 67.6622 30.28C67.6622 28.904 67.9182 27.696 68.4302 26.656C68.9582 25.616 69.6702 24.816 70.5662 24.256C71.4622 23.696 72.4622 23.416 73.5662 23.416ZM77.6942 30.304C77.6942 29.28 77.4062 28.472 76.8302 27.88C76.2702 27.288 75.5822 26.992 74.7662 26.992C73.9502 26.992 73.2542 27.288 72.6782 27.88C72.1182 28.456 71.8382 29.256 71.8382 30.28C71.8382 31.304 72.1182 32.12 72.6782 32.728C73.2542 33.32 73.9502 33.616 74.7662 33.616C75.5822 33.616 76.2702 33.32 76.8302 32.728C77.4062 32.136 77.6942 31.328 77.6942 30.304ZM86.8312 22.216C86.1112 22.216 85.5192 22.008 85.0552 21.592C84.6072 21.16 84.3832 20.632 84.3832 20.008C84.3832 19.368 84.6072 18.84 85.0552 18.424C85.5192 17.992 86.1112 17.776 86.8312 17.776C87.5352 17.776 88.1112 17.992 88.5592 18.424C89.0232 18.84 89.2552 19.368 89.2552 20.008C89.2552 20.632 89.0232 21.16 88.5592 21.592C88.1112 22.008 87.5352 22.216 86.8312 22.216ZM88.8712 23.608V37H84.7672V23.608H88.8712ZM100.005 23.464C101.573 23.464 102.821 23.976 103.749 25C104.693 26.008 105.165 27.4 105.165 29.176V37H101.085V29.728C101.085 28.832 100.853 28.136 100.389 27.64C99.9253 27.144 99.3013 26.896 98.5173 26.896C97.7333 26.896 97.1093 27.144 96.6453 27.64C96.1813 28.136 95.9493 28.832 95.9493 29.728V37H91.8453V23.608H95.9493V25.384C96.3653 24.792 96.9253 24.328 97.6293 23.992C98.3333 23.64 99.1253 23.464 100.005 23.464Z" fill="white"/>
<defs>
<filter id="filter0_d_1_30" x="0" y="0" width="151" height="67.4846" filterUnits="userSpaceOnUse" color-interpolation-filters="sRGB">
<feFlood flood-opacity="0" result="BackgroundImageFix"/>
<feColorMatrix in="SourceAlpha" type="matrix" values="0 0 0 0 0 0 0 0 0 0 0 0 0 0 0 0 0 0 127 0" result="hardAlpha"/>
<feOffset dy="4"/>
<feGaussianBlur stdDeviation="2"/>
<feComposite in2="hardAlpha" operator="out"/>
<feColorMatrix type="matrix" values="0 0 0 0 0 0 0 0 0 0 0 0 0 0 0 0 0 0 0.25 0"/>
<feBlend mode="normal" in2="BackgroundImageFix" result="effect1_dropShadow_1_30"/>
<feBlend mode="normal" in="SourceGraphic" in2="effect1_dropShadow_1_30" result="shape"/>
</filter>
</defs>
</svg>
