<svg width="202" height="64" viewBox="0 0 202 64" fill="none" xmlns="http://www.w3.org/2000/svg">
<path d="M35.19 59H26.469L11.883 36.917V59H3.162V23.198H11.883L26.469 45.383V23.198H35.19V59ZM68.3376 44.312C68.3376 45.128 68.2866 45.978 68.1846 46.862H48.4476C48.5836 48.63 49.1446 49.99 50.1306 50.942C51.1506 51.86 52.3916 52.319 53.8536 52.319C56.0296 52.319 57.5426 51.401 58.3926 49.565H67.6746C67.1986 51.435 66.3316 53.118 65.0736 54.614C63.8496 56.11 62.3026 57.283 60.4326 58.133C58.5626 58.983 56.4716 59.408 54.1596 59.408C51.3716 59.408 48.8896 58.813 46.7136 57.623C44.5376 56.433 42.8376 54.733 41.6136 52.523C40.3896 50.313 39.7776 47.729 39.7776 44.771C39.7776 41.813 40.3726 39.229 41.5626 37.019C42.7866 34.809 44.4866 33.109 46.6626 31.919C48.8386 30.729 51.3376 30.134 54.1596 30.134C56.9136 30.134 59.3616 30.712 61.5036 31.868C63.6456 33.024 65.3116 34.673 66.5016 36.815C67.7256 38.957 68.3376 41.456 68.3376 44.312ZM59.4126 42.017C59.4126 40.521 58.9026 39.331 57.8826 38.447C56.8626 37.563 55.5876 37.121 54.0576 37.121C52.5956 37.121 51.3546 37.546 50.3346 38.396C49.3486 39.246 48.7366 40.453 48.4986 42.017H59.4126ZM96.3444 59L88.6224 47.39L81.8184 59H71.3424L83.4924 39.722L71.0724 21.092H81.8184L89.4324 32.54L96.1284 21.092H106.604L94.5624 40.208L107.09 59H96.3444ZM124.494 59.408C121.706 59.408 119.19 58.813 116.946 57.623C114.736 56.433 112.985 54.733 111.693 52.523C110.435 50.313 109.806 47.729 109.806 44.771C109.806 41.847 110.452 39.28 111.744 37.07C113.036 34.826 114.804 33.109 117.048 31.919C119.292 30.729 121.808 30.134 124.596 30.134C127.384 30.134 129.9 30.729 132.144 31.919C134.388 33.109 136.156 34.826 137.448 37.07C138.74 39.28 139.386 41.847 139.386 44.771C139.386 47.695 138.723 50.279 137.397 52.523C136.105 54.733 134.32 56.433 132.042 57.623C129.798 58.813 127.282 59.408 124.494 59.408ZM124.494 51.86C126.16 51.86 127.571 51.248 128.727 50.024C129.917 48.8 130.512 47.049 130.512 44.771C130.512 42.493 129.934 40.742 128.778 39.518C127.656 38.294 126.262 37.682 124.596 37.682C122.896 37.682 121.485 38.294 120.363 39.518C119.241 40.708 118.68 42.459 118.68 44.771C118.68 47.049 119.224 48.8 120.312 50.024C121.434 51.248 122.828 51.86 124.494 51.86ZM152.734 35.285C153.754 33.721 155.029 32.497 156.559 31.613C158.089 30.695 159.789 30.236 161.659 30.236V39.467H159.262C157.086 39.467 155.454 39.943 154.366 40.895C153.278 41.813 152.734 43.445 152.734 45.791V59H144.013V30.542H152.734V35.285ZM164.093 44.72C164.093 41.796 164.637 39.229 165.725 37.019C166.847 34.809 168.36 33.109 170.264 31.919C172.168 30.729 174.293 30.134 176.639 30.134C178.645 30.134 180.396 30.542 181.892 31.358C183.422 32.174 184.595 33.245 185.411 34.571V30.542H194.132V59H185.411V54.971C184.561 56.297 183.371 57.368 181.841 58.184C180.345 59 178.594 59.408 176.588 59.408C174.276 59.408 172.168 58.813 170.264 57.623C168.36 56.399 166.847 54.682 165.725 52.472C164.637 50.228 164.093 47.644 164.093 44.72ZM185.411 44.771C185.411 42.595 184.799 40.878 183.575 39.62C182.385 38.362 180.923 37.733 179.189 37.733C177.455 37.733 175.976 38.362 174.752 39.62C173.562 40.844 172.967 42.544 172.967 44.72C172.967 46.896 173.562 48.63 174.752 49.922C175.976 51.18 177.455 51.809 179.189 51.809C180.923 51.809 182.385 51.18 183.575 49.922C184.799 48.664 185.411 46.947 185.411 44.771Z" fill="#0A1F72"/>
</svg>
