<svg width="151" height="68" viewBox="0 0 151 68" fill="none" xmlns="http://www.w3.org/2000/svg">
<g filter="url(#filter0_d_1_34)">
<rect x="4" width="143" height="59.4846" rx="29.7423" fill="#0A1F72"/>
<rect x="4" width="143" height="59.4846" rx="29.7423" fill="black" fill-opacity="0.2"/>
<rect x="4.5" y="0.5" width="142" height="58.4846" rx="29.2423" stroke="black"/>
</g>
<path d="M35.5859 37.168C34.3539 37.168 33.2499 36.968 32.2739 36.568C31.2979 36.168 30.5139 35.576 29.9219 34.792C29.3459 34.008 29.0419 33.064 29.0099 31.96H33.3779C33.4419 32.584 33.6579 33.064 34.0259 33.4C34.3939 33.72 34.8739 33.88 35.4659 33.88C36.0739 33.88 36.5539 33.744 36.9059 33.472C37.2579 33.184 37.4339 32.792 37.4339 32.296C37.4339 31.88 37.2899 31.536 37.0019 31.264C36.7299 30.992 36.3859 30.768 35.9699 30.592C35.5699 30.416 34.9939 30.216 34.2419 29.992C33.1539 29.656 32.2659 29.32 31.5779 28.984C30.8899 28.648 30.2979 28.152 29.8019 27.496C29.3059 26.84 29.0579 25.984 29.0579 24.928C29.0579 23.36 29.6259 22.136 30.7619 21.256C31.8979 20.36 33.3779 19.912 35.2019 19.912C37.0579 19.912 38.5539 20.36 39.6899 21.256C40.8259 22.136 41.4339 23.368 41.5139 24.952H37.0739C37.0419 24.408 36.8419 23.984 36.4739 23.68C36.1059 23.36 35.6339 23.2 35.0579 23.2C34.5619 23.2 34.1619 23.336 33.8579 23.608C33.5539 23.864 33.4019 24.24 33.4019 24.736C33.4019 25.28 33.6579 25.704 34.1699 26.008C34.6819 26.312 35.4819 26.64 36.5699 26.992C37.6579 27.36 38.5379 27.712 39.2099 28.048C39.8979 28.384 40.4899 28.872 40.9859 29.512C41.4819 30.152 41.7299 30.976 41.7299 31.984C41.7299 32.944 41.4819 33.816 40.9859 34.6C40.5059 35.384 39.8019 36.008 38.8739 36.472C37.9459 36.936 36.8499 37.168 35.5859 37.168ZM48.3595 20.152V37H44.2555V20.152H48.3595ZM62.5176 25.48C62.2136 24.92 61.7736 24.496 61.1976 24.208C60.6376 23.904 59.9736 23.752 59.2056 23.752C57.8776 23.752 56.8136 24.192 56.0136 25.072C55.2136 25.936 54.8136 27.096 54.8136 28.552C54.8136 30.104 55.2296 31.32 56.0616 32.2C56.9096 33.064 58.0696 33.496 59.5416 33.496C60.5496 33.496 61.3976 33.24 62.0856 32.728C62.7896 32.216 63.3016 31.48 63.6216 30.52H58.4136V27.496H67.3416V31.312C67.0376 32.336 66.5176 33.288 65.7816 34.168C65.0616 35.048 64.1416 35.76 63.0216 36.304C61.9016 36.848 60.6376 37.12 59.2296 37.12C57.5656 37.12 56.0776 36.76 54.7656 36.04C53.4696 35.304 52.4536 34.288 51.7176 32.992C50.9976 31.696 50.6376 30.216 50.6376 28.552C50.6376 26.888 50.9976 25.408 51.7176 24.112C52.4536 22.8 53.4696 21.784 54.7656 21.064C56.0616 20.328 57.5416 19.96 59.2056 19.96C61.2216 19.96 62.9176 20.448 64.2936 21.424C65.6856 22.4 66.6056 23.752 67.0536 25.48H62.5176ZM84.6869 37H80.5829L73.7189 26.608V37H69.6149V20.152H73.7189L80.5829 30.592V20.152H84.6869V37ZM96.7797 20.152V30.232C96.7797 31.24 97.0277 32.016 97.5237 32.56C98.0197 33.104 98.7477 33.376 99.7077 33.376C100.668 33.376 101.404 33.104 101.916 32.56C102.428 32.016 102.684 31.24 102.684 30.232V20.152H106.788V30.208C106.788 31.712 106.468 32.984 105.828 34.024C105.188 35.064 104.324 35.848 103.236 36.376C102.164 36.904 100.964 37.168 99.6357 37.168C98.3077 37.168 97.1157 36.912 96.0597 36.4C95.0197 35.872 94.1957 35.088 93.5877 34.048C92.9797 32.992 92.6757 31.712 92.6757 30.208V20.152H96.7797ZM122.51 25.576C122.51 26.552 122.286 27.448 121.838 28.264C121.39 29.064 120.702 29.712 119.774 30.208C118.846 30.704 117.694 30.952 116.318 30.952H113.774V37H109.67V20.152H116.318C117.662 20.152 118.798 20.384 119.726 20.848C120.654 21.312 121.35 21.952 121.814 22.768C122.278 23.584 122.51 24.52 122.51 25.576ZM116.006 27.688C116.79 27.688 117.374 27.504 117.758 27.136C118.142 26.768 118.334 26.248 118.334 25.576C118.334 24.904 118.142 24.384 117.758 24.016C117.374 23.648 116.79 23.464 116.006 23.464H113.774V27.688H116.006Z" fill="white"/>
<defs>
<filter id="filter0_d_1_34" x="0" y="0" width="151" height="67.4846" filterUnits="userSpaceOnUse" color-interpolation-filters="sRGB">
<feFlood flood-opacity="0" result="BackgroundImageFix"/>
<feColorMatrix in="SourceAlpha" type="matrix" values="0 0 0 0 0 0 0 0 0 0 0 0 0 0 0 0 0 0 127 0" result="hardAlpha"/>
<feOffset dy="4"/>
<feGaussianBlur stdDeviation="2"/>
<feComposite in2="hardAlpha" operator="out"/>
<feColorMatrix type="matrix" values="0 0 0 0 0 0 0 0 0 0 0 0 0 0 0 0 0 0 0.25 0"/>
<feBlend mode="normal" in2="BackgroundImageFix" result="effect1_dropShadow_1_34"/>
<feBlend mode="normal" in="SourceGraphic" in2="effect1_dropShadow_1_34" result="shape"/>
</filter>
</defs>
</svg>
