<svg width="544" height="142" viewBox="0 0 544 142" fill="none" xmlns="http://www.w3.org/2000/svg">
<g filter="url(#filter0_d_1_43)">
<g filter="url(#filter1_d_1_43)">
<rect x="30" y="30" width="484" height="81.4846" rx="40.7423" fill="#0A1F72"/>
<rect x="30" y="30" width="484" height="81.4846" rx="40.7423" fill="black" fill-opacity="0.2"/>
<rect x="30.5" y="30.5" width="483" height="80.4846" rx="40.2423" stroke="black"/>
</g>
<path d="M133.867 80.2922C132.225 80.2922 130.753 80.0256 129.451 79.4922C128.15 78.9589 127.105 78.1696 126.315 77.1242C125.547 76.0789 125.142 74.8202 125.099 73.3482H130.923C131.009 74.1802 131.297 74.8202 131.787 75.2682C132.278 75.6949 132.918 75.9082 133.707 75.9082C134.518 75.9082 135.158 75.7269 135.627 75.3642C136.097 74.9802 136.331 74.4576 136.331 73.7962C136.331 73.2416 136.139 72.7829 135.755 72.4202C135.393 72.0576 134.934 71.7589 134.379 71.5242C133.846 71.2896 133.078 71.0229 132.075 70.7242C130.625 70.2762 129.441 69.8282 128.523 69.3802C127.606 68.9322 126.817 68.2709 126.155 67.3962C125.494 66.5216 125.163 65.3802 125.163 63.9722C125.163 61.8816 125.921 60.2496 127.435 59.0762C128.95 57.8816 130.923 57.2842 133.355 57.2842C135.83 57.2842 137.825 57.8816 139.339 59.0762C140.854 60.2496 141.665 61.8922 141.771 64.0042H135.851C135.809 63.2789 135.542 62.7136 135.051 62.3082C134.561 61.8816 133.931 61.6682 133.163 61.6682C132.502 61.6682 131.969 61.8496 131.563 62.2122C131.158 62.5536 130.955 63.0549 130.955 63.7162C130.955 64.4416 131.297 65.0069 131.979 65.4122C132.662 65.8176 133.729 66.2549 135.179 66.7242C136.63 67.2149 137.803 67.6842 138.699 68.1322C139.617 68.5802 140.406 69.2309 141.067 70.0842C141.729 70.9376 142.059 72.0362 142.059 73.3802C142.059 74.6602 141.729 75.8229 141.067 76.8682C140.427 77.9136 139.489 78.7456 138.251 79.3642C137.014 79.9829 135.553 80.2922 133.867 80.2922ZM155.379 75.4282V80.0682H152.595C150.611 80.0682 149.064 79.5882 147.955 78.6282C146.846 77.6469 146.291 76.0576 146.291 73.8602V66.7562H144.115V62.2122H146.291V57.8602H151.763V62.2122H155.347V66.7562H151.763V73.9242C151.763 74.4576 151.891 74.8416 152.147 75.0762C152.403 75.3109 152.83 75.4282 153.427 75.4282H155.379ZM157.339 71.1082C157.339 69.2736 157.68 67.6629 158.363 66.2762C159.067 64.8896 160.016 63.8229 161.211 63.0762C162.406 62.3296 163.739 61.9562 165.211 61.9562C166.47 61.9562 167.568 62.2122 168.507 62.7242C169.467 63.2362 170.203 63.9082 170.715 64.7402V62.2122H176.187V80.0682H170.715V77.5402C170.182 78.3722 169.435 79.0442 168.475 79.5562C167.536 80.0682 166.438 80.3242 165.179 80.3242C163.728 80.3242 162.406 79.9509 161.211 79.2042C160.016 78.4362 159.067 77.3589 158.363 75.9722C157.68 74.5642 157.339 72.9429 157.339 71.1082ZM170.715 71.1402C170.715 69.7749 170.331 68.6976 169.563 67.9082C168.816 67.1189 167.899 66.7242 166.811 66.7242C165.723 66.7242 164.795 67.1189 164.027 67.9082C163.28 68.6762 162.907 69.7429 162.907 71.1082C162.907 72.4736 163.28 73.5616 164.027 74.3722C164.795 75.1616 165.723 75.5562 166.811 75.5562C167.899 75.5562 168.816 75.1616 169.563 74.3722C170.331 73.5829 170.715 72.5056 170.715 71.1402ZM185.618 65.1882C186.258 64.2069 187.058 63.4389 188.018 62.8842C188.978 62.3082 190.044 62.0202 191.218 62.0202V67.8122H189.714C188.348 67.8122 187.324 68.1109 186.642 68.7082C185.959 69.2842 185.618 70.3082 185.618 71.7802V80.0682H180.146V62.2122H185.618V65.1882ZM203.785 75.4282V80.0682H201.001C199.017 80.0682 197.47 79.5882 196.361 78.6282C195.252 77.6469 194.697 76.0576 194.697 73.8602V66.7562H192.521V62.2122H194.697V57.8602H200.169V62.2122H203.753V66.7562H200.169V73.9242C200.169 74.4576 200.297 74.8416 200.553 75.0762C200.809 75.3109 201.236 75.4282 201.833 75.4282H203.785ZM231.854 62.2122L220.654 88.5482H214.766L218.862 79.4602L211.598 62.2122H217.71L221.838 73.3802L225.934 62.2122H231.854ZM241.961 80.3242C240.212 80.3242 238.633 79.9509 237.225 79.2042C235.838 78.4576 234.74 77.3909 233.929 76.0042C233.14 74.6176 232.745 72.9962 232.745 71.1402C232.745 69.3056 233.15 67.6949 233.961 66.3082C234.772 64.9002 235.881 63.8229 237.289 63.0762C238.697 62.3296 240.276 61.9562 242.025 61.9562C243.774 61.9562 245.353 62.3296 246.761 63.0762C248.169 63.8229 249.278 64.9002 250.089 66.3082C250.9 67.6949 251.305 69.3056 251.305 71.1402C251.305 72.9749 250.889 74.5962 250.057 76.0042C249.246 77.3909 248.126 78.4576 246.697 79.2042C245.289 79.9509 243.71 80.3242 241.961 80.3242ZM241.961 75.5882C243.006 75.5882 243.892 75.2042 244.617 74.4362C245.364 73.6682 245.737 72.5696 245.737 71.1402C245.737 69.7109 245.374 68.6122 244.649 67.8442C243.945 67.0762 243.07 66.6922 242.025 66.6922C240.958 66.6922 240.073 67.0762 239.369 67.8442C238.665 68.5909 238.313 69.6896 238.313 71.1402C238.313 72.5696 238.654 73.6682 239.337 74.4362C240.041 75.2042 240.916 75.5882 241.961 75.5882ZM271.84 62.2122V80.0682H266.368V77.6362C265.813 78.4256 265.056 79.0656 264.096 79.5562C263.157 80.0256 262.112 80.2602 260.96 80.2602C259.595 80.2602 258.389 79.9616 257.344 79.3642C256.299 78.7456 255.488 77.8602 254.912 76.7082C254.336 75.5562 254.048 74.2016 254.048 72.6442V62.2122H259.488V71.9082C259.488 73.1029 259.797 74.0309 260.416 74.6922C261.035 75.3536 261.867 75.6842 262.912 75.6842C263.979 75.6842 264.821 75.3536 265.44 74.6922C266.059 74.0309 266.368 73.1029 266.368 71.9082V62.2122H271.84ZM281.243 65.1882C281.883 64.2069 282.683 63.4389 283.643 62.8842C284.603 62.3082 285.669 62.0202 286.843 62.0202V67.8122H285.339C283.973 67.8122 282.949 68.1109 282.267 68.7082C281.584 69.2842 281.243 70.3082 281.243 71.7802V80.0682H275.771V62.2122H281.243V65.1882ZM298.959 60.3562C297.999 60.3562 297.21 60.0789 296.591 59.5242C295.994 58.9482 295.695 58.2442 295.695 57.4122C295.695 56.5589 295.994 55.8549 296.591 55.3002C297.21 54.7242 297.999 54.4362 298.959 54.4362C299.898 54.4362 300.666 54.7242 301.263 55.3002C301.882 55.8549 302.191 56.5589 302.191 57.4122C302.191 58.2442 301.882 58.9482 301.263 59.5242C300.666 60.0789 299.898 60.3562 298.959 60.3562ZM301.711 82.3722C301.711 84.5696 301.157 86.1482 300.047 87.1082C298.938 88.0896 297.391 88.5802 295.407 88.5802H293.263V83.9402H294.575C295.173 83.9402 295.599 83.8229 295.855 83.5882C296.111 83.3536 296.239 82.9696 296.239 82.4362V62.2122H301.711V82.3722ZM313.774 80.3242C312.024 80.3242 310.446 79.9509 309.038 79.2042C307.651 78.4576 306.552 77.3909 305.742 76.0042C304.952 74.6176 304.558 72.9962 304.558 71.1402C304.558 69.3056 304.963 67.6949 305.774 66.3082C306.584 64.9002 307.694 63.8229 309.102 63.0762C310.51 62.3296 312.088 61.9562 313.838 61.9562C315.587 61.9562 317.166 62.3296 318.574 63.0762C319.982 63.8229 321.091 64.9002 321.902 66.3082C322.712 67.6949 323.118 69.3056 323.118 71.1402C323.118 72.9749 322.702 74.5962 321.87 76.0042C321.059 77.3909 319.939 78.4576 318.51 79.2042C317.102 79.9509 315.523 80.3242 313.774 80.3242ZM313.774 75.5882C314.819 75.5882 315.704 75.2042 316.43 74.4362C317.176 73.6682 317.55 72.5696 317.55 71.1402C317.55 69.7109 317.187 68.6122 316.462 67.8442C315.758 67.0762 314.883 66.6922 313.838 66.6922C312.771 66.6922 311.886 67.0762 311.182 67.8442C310.478 68.5909 310.126 69.6896 310.126 71.1402C310.126 72.5696 310.467 73.6682 311.15 74.4362C311.854 75.2042 312.728 75.5882 313.774 75.5882ZM343.653 62.2122V80.0682H338.181V77.6362C337.626 78.4256 336.869 79.0656 335.909 79.5562C334.97 80.0256 333.925 80.2602 332.773 80.2602C331.407 80.2602 330.202 79.9616 329.157 79.3642C328.111 78.7456 327.301 77.8602 326.725 76.7082C326.149 75.5562 325.861 74.2016 325.861 72.6442V62.2122H331.301V71.9082C331.301 73.1029 331.61 74.0309 332.229 74.6922C332.847 75.3536 333.679 75.6842 334.725 75.6842C335.791 75.6842 336.634 75.3536 337.253 74.6922C337.871 74.0309 338.181 73.1029 338.181 71.9082V62.2122H343.653ZM353.055 65.1882C353.695 64.2069 354.495 63.4389 355.455 62.8842C356.415 62.3082 357.482 62.0202 358.655 62.0202V67.8122H357.151C355.786 67.8122 354.762 68.1109 354.079 68.7082C353.396 69.2842 353.055 70.3082 353.055 71.7802V80.0682H347.583V62.2122H353.055V65.1882ZM372.151 62.0202C374.241 62.0202 375.905 62.7029 377.143 64.0682C378.401 65.4122 379.031 67.2682 379.031 69.6362V80.0682H373.591V70.3722C373.591 69.1776 373.281 68.2496 372.663 67.5882C372.044 66.9269 371.212 66.5962 370.167 66.5962C369.121 66.5962 368.289 66.9269 367.671 67.5882C367.052 68.2496 366.743 69.1776 366.743 70.3722V80.0682H361.271V62.2122H366.743V64.5802C367.297 63.7909 368.044 63.1722 368.983 62.7242C369.921 62.2549 370.977 62.0202 372.151 62.0202ZM399.665 70.8522C399.665 71.3642 399.633 71.8976 399.569 72.4522H387.185C387.27 73.5616 387.622 74.4149 388.241 75.0122C388.881 75.5882 389.66 75.8762 390.577 75.8762C391.942 75.8762 392.892 75.3002 393.425 74.1482H399.249C398.95 75.3216 398.406 76.3776 397.617 77.3162C396.849 78.2549 395.878 78.9909 394.705 79.5242C393.532 80.0576 392.22 80.3242 390.769 80.3242C389.02 80.3242 387.462 79.9509 386.097 79.2042C384.732 78.4576 383.665 77.3909 382.897 76.0042C382.129 74.6176 381.745 72.9962 381.745 71.1402C381.745 69.2842 382.118 67.6629 382.865 66.2762C383.633 64.8896 384.7 63.8229 386.065 63.0762C387.43 62.3296 388.998 61.9562 390.769 61.9562C392.497 61.9562 394.033 62.3189 395.377 63.0442C396.721 63.7696 397.766 64.8042 398.513 66.1482C399.281 67.4922 399.665 69.0602 399.665 70.8522ZM394.065 69.4122C394.065 68.4736 393.745 67.7269 393.105 67.1722C392.465 66.6176 391.665 66.3402 390.705 66.3402C389.788 66.3402 389.009 66.6069 388.369 67.1402C387.75 67.6736 387.366 68.4309 387.217 69.4122H394.065ZM420.792 62.2122L409.592 88.5482H403.704L407.8 79.4602L400.536 62.2122H406.648L410.776 73.3802L414.872 62.2122H420.792Z" fill="white"/>
</g>
<defs>
<filter id="filter0_d_1_43" x="0" y="0" width="544" height="141.485" filterUnits="userSpaceOnUse" color-interpolation-filters="sRGB">
<feFlood flood-opacity="0" result="BackgroundImageFix"/>
<feColorMatrix in="SourceAlpha" type="matrix" values="0 0 0 0 0 0 0 0 0 0 0 0 0 0 0 0 0 0 127 0" result="hardAlpha"/>
<feOffset/>
<feGaussianBlur stdDeviation="15"/>
<feComposite in2="hardAlpha" operator="out"/>
<feColorMatrix type="matrix" values="0 0 0 0 0 0 0 0 0 0 0 0 0 0 0 0 0 0 0.25 0"/>
<feBlend mode="normal" in2="BackgroundImageFix" result="effect1_dropShadow_1_43"/>
<feBlend mode="normal" in="SourceGraphic" in2="effect1_dropShadow_1_43" result="shape"/>
</filter>
<filter id="filter1_d_1_43" x="26" y="30" width="492" height="89.4846" filterUnits="userSpaceOnUse" color-interpolation-filters="sRGB">
<feFlood flood-opacity="0" result="BackgroundImageFix"/>
<feColorMatrix in="SourceAlpha" type="matrix" values="0 0 0 0 0 0 0 0 0 0 0 0 0 0 0 0 0 0 127 0" result="hardAlpha"/>
<feOffset dy="4"/>
<feGaussianBlur stdDeviation="2"/>
<feComposite in2="hardAlpha" operator="out"/>
<feColorMatrix type="matrix" values="0 0 0 0 0 0 0 0 0 0 0 0 0 0 0 0 0 0 0.25 0"/>
<feBlend mode="normal" in2="BackgroundImageFix" result="effect1_dropShadow_1_43"/>
<feBlend mode="normal" in="SourceGraphic" in2="effect1_dropShadow_1_43" result="shape"/>
</filter>
</defs>
</svg>
